# xmcd CD database file
#
# Track frame offsets:
#	150
#	10468
#	35988
#	50113
#	67857
#	86896
#	105261
#	128512
#	147876
#	161650
#	187197
#	201242
#
# Disc length: 2813 seconds
#
# Revision: 0
# Processed by: cddbd v1.5.1PL0 Copyright (c) Steve Scherf et al.
# Submitted via: CDex 1.51
#
DISCID=ad0afb0c
DTITLE=Frederic Delarue - Soaring With The Angels
DYEAR=2003
DGENRE=New Age
TTITLE0=Heaven Sent
TTITLE1=A Moment Of Bliss
TTITLE2=Good Thoughts
TTITLE3=Soaring With The Angels
TTITLE4=Whistling Grace
TTITLE5=Celestial Lullaby
TTITLE6=Pursuit Of Dreams
TTITLE7=Cherub's Ballad
TTITLE8=You Have The Face Of An Angel
TTITLE9=Ethereal Glory
TTITLE10=Celestial Lullaby (Unplugged Version)
TTITLE11=Stillness Of The Aurora
EXTD=YEAR: 2003
EXTT0=
EXTT1=
EXTT2=
EXTT3=
EXTT4=
EXTT5=
EXTT6=
EXTT7=
EXTT8=
EXTT9=
EXTT10=
EXTT11=
PLAYORDER=
